<svg width="128" height="128" xmlns="http://www.w3.org/2000/svg"><path d="M624.128 287.744a31.232 31.232 0 0 0 33.792-31.232 32.768 32.768 0 0 0-33.792-31.232h-80.896v-76.288a31.744 31.744 0 1 0-62.976 0v78.336H399.872a31.232 31.232 0 1 0 0 62.464h80.896V332.8H399.872a31.232 31.232 0 0 0-33.792 31.232 32.768 32.768 0 0 0 33.792 31.232h45.056l-15.872 31.232L409.6 466.944a32.256 32.256 0 0 0 11.264 44.544 34.304 34.304 0 0 0 39.936-15.36l15.872-31.232 15.872-31.232 15.872-33.792 15.872 33.792 15.872 31.232 15.872 31.232a32.256 32.256 0 0 0 42.496 15.872 34.304 34.304 0 0 0 11.264-44.544l-11.264-37.888-15.872-33.792h42.496a31.232 31.232 0 1 0 0-62.464h-79.36v-45.056z m212.992 327.168H187.392a31.232 31.232 0 0 1-33.792-31.744V61.44a33.792 33.792 0 0 1 33.792-35.84h649.216a33.792 33.792 0 0 1 33.792 35.84V583.168a31.232 31.232 0 0 1-33.792 31.744zM241.152 679.424h541.696a31.232 31.232 0 0 1 33.792 31.232 32.768 32.768 0 0 1-33.792 31.744H241.152a31.232 31.232 0 0 1 0-62.976z"/></svg>